<svg width="398" height="398" fill="none" xmlns="http://www.w3.org/2000/svg"><path d="M80.935 142.699s-14.847 8.391-15.004 23.546c-.157 15.155 41.917 53.359 41.917 53.359l101.79-74.286-43.591-54.889-85.112 52.27Z" fill="#C7DCF9"/><path d="M107.354 153.157s-9.903 13.364-11.581 26.8c-1.679 13.436 1.22 36.572 3.071 45.126 19.594 13.179 86.095-9.933 86.095-9.933l54.866-85.608s-14.204-19.17-20.708-24.046c-6.503-4.875-25.927-9.288-45.928 2.17-9.933 19.135-65.815 45.491-65.815 45.491Z" fill="#E1ECFF"/><path d="M103.054 159.947s26.77 4.326 53.996-10.777c27.226-15.103 27.974-46.588 27.974-46.588l-11.868 5.09-65.802 45.485-4.3 6.79Z" fill="#E1ECFF" style="mix-blend-mode:multiply"/><path d="M220.977 239.029s32.393-4.506 41.819-3.553c9.425.953 41.267 50.841 51.97 54.503 10.704 3.662 17.928-6.061 27.983-13.963 10.055-7.902 19.002-16.995 18.853-20.225-.149-3.229-6.661-15.274-11.066-17.255-4.405-1.98-16.135-.458-21.808 4.37-12.738-23.158-30.979-56.98-43.653-60.156-12.675-3.176-49.257-.241-49.257-.241l-14.841 56.52Z" fill="#E1ECFF"/><path d="M251.618 210.697s26.763-1.01 35.442 7.542c8.679 8.551 31.664 65.263 48.014 64.305 3.032 19.013-29.408 30.761-29.408 30.761l-92.868-75.628 38.82-26.98Z" fill="#E1ECFF" style="mix-blend-mode:multiply" opacity=".51"/><path d="M133.325 246.869s25.855 38.011 45.528 46.542c19.674 8.531 52.244 2.869 62.327 8.863 10.084 5.994 13.287 41.374 23.655 49.36 10.369 7.987 23.884 11.837 35.588 9.063 11.705-2.773 20.38-9.729 19.74-14.976-.641-5.247-1.778-9.714-7.756-11.692-5.979-1.979-14.166-3.158-14.977-6.361-.811-3.203-14.321-51.799-18.895-64.876-4.574-13.077-27.606-28.841-55.15-34.461-27.743-16.731-64.54-2.477-64.54-2.477l-25.52 21.015Z" fill="#E1ECFF"/><path d="M140.708 256.971s23.005-2.182 42.231-13.998c-6.897-19.886-19.87-24.168-19.87-24.168l-29.744 28.064 7.383 10.102Z" fill="#E1ECFF" style="mix-blend-mode:multiply"/><path d="M141.217 38.738c-19.254-6.78-57.201-4.49-76.247 27.005-19.046 31.495-3.267 58.986 8.433 71.15 12.256 12.77 50.423 29.457 84.798 3.563 34.375-25.893 29.733-85.256-16.984-101.718Z" fill="#E1ECFF"/><path d="M140.642 56.386c16.43 1.407 29.93 21.754 27.639 43.45-2.291 21.695-18.626 38.437-39.241 41.553-20.615 3.117-43.14-7.704-46.787-33.538-3.5-24.827 22.713-54.517 58.389-51.465Z" fill="#1C3177"/><path d="M118.652 226.456c19.331-12.429.716-31.675 20.64-39.568 27.76-.169 35.087-2.625 35.087-2.625s-45.529 52.381-55.727 42.193Z" fill="#E1ECFF" style="mix-blend-mode:multiply"/><path d="m127.53 166.441 47.098 81.869 48.571-8.233 40.56-34.149 7.531-41.45-46.057-90.14-9.194 46.676-35.954 37.513-52.555 7.914Z" fill="#FF97C9"/><path d="M118.652 226.456c11.29-2.569 16.047-10.705 19.038-14.443 1.523-1.908.96-3.303-.622-7.937-1.581-4.633.79-9.967 4.697-12.671 3.202 5.764 6.212 6.507 8.364 5.902 2.152-.605 2.536-13.778 9.726-14.709 7.19-.931 14.297 7.535 15.931 12.04 1.634 4.505-1.07 18.429-5.53 28.573-4.459 10.145-10.984 22.85-28.921 29.139-17.937 6.288-29.778-1.423-37.527-12.223-2.615-3.644-4.143-8.985-4.962-15.063 0 0 4.911 4.746 19.806 1.392ZM241.095 105.384s3.218 6.687 2.135 9.634c-1.084 2.946-2.773 5.498-3.745 9.211s3.141 16.574 9.991 17.889c6.85 1.314 11.384-5.395 12.607-9.075 1.222-3.68-1.042-12.545-4.505-18.451-3.464-5.906-9.071-10.788-16.483-9.208Z" fill="#E1ECFF"/><path d="m235.919 17.223 1.885 2.69c.113.163.265.297.443.389.178.091.377.14.579.139l3.338-.023c.233-.001.462.062.66.182s.357.292.46.497a1.213 1.213 0 0 1-.134 1.29l-2.035 2.612a1.196 1.196 0 0 0-.201 1.122l1.018 3.094a1.208 1.208 0 0 1-.318 1.257 1.265 1.265 0 0 1-1.287.283l-3.149-1.08a1.259 1.259 0 0 0-1.148.168l-2.71 1.932a1.269 1.269 0 0 1-1.318.1 1.207 1.207 0 0 1-.664-1.117l.098-3.257a1.195 1.195 0 0 0-.512-1.019l-2.695-1.924a1.212 1.212 0 0 1-.496-1.197c.04-.226.143-.437.299-.608.156-.172.357-.297.581-.363l3.206-.93a1.225 1.225 0 0 0 .829-.797l1.04-3.115c.072-.22.205-.416.385-.566a1.27 1.27 0 0 1 1.846.241ZM124.061 347.22l1.581 2.257a1.035 1.035 0 0 0 .858.44l2.801-.009c.195 0 .386.053.552.153.165.101.299.245.385.417a1.016 1.016 0 0 1-.111 1.079l-1.709 2.185a.998.998 0 0 0-.165.95l.853 2.609c.059.182.065.377.017.563a1.035 1.035 0 0 1-.286.49c-.14.134-.315.228-.506.27-.19.043-.389.033-.573-.029l-2.637-.908a1.065 1.065 0 0 0-.963.14l-2.26 1.612a1.063 1.063 0 0 1-1.105.081 1.026 1.026 0 0 1-.556-.937l.073-2.744a1.014 1.014 0 0 0-.432-.863l-2.257-1.608a1.017 1.017 0 0 1-.414-1.003c.034-.189.12-.365.25-.509a1.06 1.06 0 0 1 .486-.304l2.683-.789a1.044 1.044 0 0 0 .701-.667l.872-2.614c.062-.183.174-.345.324-.468a1.06 1.06 0 0 1 1.538.206Z" fill="#FEC272"/><path d="M130.57 84.485c11.032-4.118 18.788-10.553 17.326-14.372-1.463-3.819-11.591-3.576-22.623.542-11.031 4.118-18.788 10.552-17.325 14.372 1.462 3.819 11.591 3.576 22.622-.542Z" fill="#fff" style="mix-blend-mode:soft-light" opacity=".48"/><path d="M175.044 208.049s-14.773-9.569-17.147-9.223c-2.374.345-7.375 10.337-5.6 12.534 1.775 2.196 10.243 9.005 18.634 10.257 1.897-5.251 4.113-13.568 4.113-13.568Z" fill="#E1ECFF" style="mix-blend-mode:multiply"/><path d="m180.085 158.527 43.114 81.55 40.56-34.149-47.72-84.914-35.954 37.513Z" fill="#FF97C9" style="mix-blend-mode:multiply" opacity=".5"/><path d="M283.55 278.839a57.77 57.77 0 0 1-13.98 11.099c-4.903 2.715-6.073 6.98-3.433 14.109 2.639 7.128 5.188 18.471 8.868 21.021 3.679 2.549 14.59-.679 19.343-8.541-3.823-13.571-10.798-37.688-10.798-37.688ZM302.83 199.435s-6.077 3.71-4.819 8.034c1.258 4.323 10.981 24.692 13.871 26.235 2.891 1.543 10.118-2.992 10.118-2.992-11.138-20.871-19.17-31.277-19.17-31.277Z" fill="#E1ECFF" style="mix-blend-mode:multiply"/><path d="M36.838 290.279c-6.675-9.718 8.48-23.365 22.88-24.637 14.4-1.271 22.283 10.778 28.043 14.863 12.03 8.522 13.13 18.414 6.429 23.711-6.701 5.297-48.52-1.081-57.352-13.937ZM301.352 86.163c-4.685-2.968-2.845-20.392 6.421-25.757 9.267-5.365 22.111-2.843 25.702 3.517 3.591 6.36-22.519 28.318-32.123 22.24ZM350.875 88.135c-1.7 3.29-1.885 11.984 2.838 12.839 4.723.855 6.858-8.372 4.614-12.687-2.245-4.314-6.316-2.35-7.452-.152Z" fill="#99ADF9"/><path opacity=".44" d="M344.091 18.797c-3.135 2.04-7.704 9.514-4.046 12.562 3.657 3.048 10.167-3.949 10.411-8.797.245-4.848-4.271-5.126-6.365-3.765ZM66.88 330.887c-3.236-1.845-12.065-2.528-13.26 2.051-1.196 4.579 8.047 7.166 12.577 5.237 4.53-1.928 2.838-6.055.683-7.288Z" fill="#99ADF9"/><path d="M84.812 278.002c-5.031 1.705-3.538 6.115-1.284 9.979 2.254 3.864 8.256 4.185 11.824-.165-3.577-5.839-10.54-9.814-10.54-9.814ZM54.1 275.492c-3.643.943-5.896 6.634-2.666 10.514 3.23 3.879 8.657 6.257 11.334 4.682 2.677-1.576 2.24-7.923-.4-11.651-2.642-3.729-4.765-4.453-8.268-3.545ZM321.416 62.117c-1.939.93-3.685 3.385-3.166 5.685.519 2.3 2.888 4.031 5.097 3.427 2.209-.604 3.607-4.444 2.772-6.934-.835-2.491-3.223-2.885-4.703-2.178ZM300.561 69.784s3.173 2.317 3.159 5.474c-.013 3.156-4.84 3.567-4.84 3.567s-.053-5.37 1.681-9.04Z" fill="#99ADF9" style="mix-blend-mode:multiply" opacity=".64"/></svg>