<svg width="998" height="660" fill="none" xmlns="http://www.w3.org/2000/svg"><circle cx="47.551" cy="496.397" r=".5" transform="rotate(176.702 47.551 496.397)" fill="#fff"/><circle cx="100.968" cy="415.189" r=".5" transform="rotate(176.702 100.968 415.189)" fill="#fff"/><circle cx="366.178" cy="445.983" r=".5" transform="rotate(176.702 366.178 445.983)" fill="#fff"/><circle cx="631.389" cy="476.777" r=".5" transform="rotate(176.702 631.389 476.777)" fill="#fff"/><circle cx="604.614" cy="377.152" r=".5" transform="rotate(176.702 604.614 377.152)" fill="#fff"/><circle cx="737.417" cy="300.385" r=".5" transform="rotate(176.702 737.417 300.385)" fill="#fff"/><circle cx="525.978" cy="333.604" r=".5" transform="rotate(176.702 525.978 333.604)" fill="#fff"/><circle cx="733.224" cy="418.822" r=".5" transform="rotate(176.702 733.224 418.822)" fill="#fff"/><circle cx="419.622" cy="539.063" r=".5" transform="rotate(176.702 419.622 539.063)" fill="#fff"/><circle cx="106.02" cy="659.303" r=".5" transform="rotate(176.702 106.02 659.303)" fill="#fff"/><circle cx="219.659" cy="354.26" r="2.5" transform="rotate(176.702 219.659 354.26)" fill="#fff" fill-opacity=".2"/><circle cx="453.786" cy="401.87" r="2.5" transform="rotate(176.702 453.786 401.87)" fill="#fff" fill-opacity=".3"/><circle cx="2.64" cy="290.64" r="2.5" transform="rotate(176.702 2.64 290.64)" fill="#fff"/><circle cx="279.339" cy="486.045" r="2.5" transform="rotate(176.702 279.339 486.045)" fill="#fff"/><circle opacity=".5" cx="559.451" cy="627.665" r="2" transform="rotate(176.702 559.451 627.665)" fill="#fff"/><circle opacity=".5" cx="947.536" cy="339.862" r="2" transform="rotate(176.702 947.536 339.862)" fill="#fff"/><circle opacity=".5" cx="819.45" cy="498.494" r="2" transform="rotate(176.702 819.45 498.494)" fill="#fff"/><circle cx="962.5" cy="413.5" r=".5" fill="#fff"/><circle cx="904.5" cy="491.5" r=".5" fill="#fff"/><circle cx="641.5" cy="445.5" r=".5" fill="#fff"/><circle cx="378.5" cy="399.5" r=".5" fill="#fff"/><circle cx="399.5" cy="500.5" r=".5" fill="#fff"/><circle cx="262.5" cy="569.5" r=".5" fill="#fff"/><circle cx="475.5" cy="548.5" r=".5" fill="#fff"/><circle cx="273.5" cy="451.5" r=".5" fill="#fff"/><circle cx="593.5" cy="349.5" r=".5" fill="#fff"/><circle cx="913.5" cy="247.5" r=".5" fill="#fff"/><circle cx="367.5" cy="616.5" r=".5" fill="#fff"/><circle cx="508.5" cy="617.5" r=".5" fill="#fff"/><circle cx="782.5" cy="545.5" r="2.5" fill="#fff" fill-opacity=".2"/><circle cx="551.5" cy="484.5" r="2.5" fill="#fff" fill-opacity=".3"/><circle cx="995.5" cy="621.5" r="2.5" fill="#fff"/><circle cx="730.5" cy="410.5" r="2.5" fill="#fff"/><circle opacity=".5" cx="459" cy="253" r="2" fill="#fff"/><circle opacity=".5" cx="188" cy="2" r="2" fill="#fff"/><circle opacity=".5" cx="55" cy="518" r="2" fill="#fff"/><circle opacity=".5" cx="192" cy="367" r="2" fill="#fff"/></svg>